<svg xmlns="http://www.w3.org/2000/svg" xmlns:xlink="http://www.w3.org/1999/xlink" version="1.1" x="0px" y="0px" viewBox="0 0 100 125" style="enable-background:new 0 0 100 100;" xml:space="preserve"><g><path d="M58.1,75H41.9c-0.8,0-1.4-0.4-1.8-1.1c-0.4-0.7-0.4-1.4,0-2.1l3.4-5.9c-1.6,0.5-3.3,0.5-5,0.2   c-4.7-0.9-8.1-5.2-8.2-10.4c-0.2-7.4,12.4-23.4,17.9-29.9c0.4-0.5,1.1-0.9,1.8-0.9l0,0c0.7,0,1.3,0.3,1.8,0.8l0,0   c5.4,6.2,18,21.7,17.8,30c-0.1,5.1-3.6,9.5-8.2,10.4c-1.7,0.3-3.4,0.3-5-0.2l3.4,5.9c0.4,0.7,0.4,1.4,0,2.1   C59.5,74.6,58.8,75,58.1,75z M46,62.7c0.2,0,0.5,0.1,0.7,0.3c0.3,0.3,0.4,0.8,0.2,1.2l-5,8.6v0.1C41.9,73,42,73,42,73h16.1   c0,0,0.1,0,0.1-0.1s0-0.1,0-0.1l-5-8.6C53,63.8,53,63.3,53.4,63s0.9-0.4,1.2-0.1c1.9,1.3,4.2,1.8,6.5,1.3c3.7-0.7,6.5-4.3,6.6-8.5   c0.1-6.2-8.9-18.8-17.4-28.6l0,0C50.2,27,50.1,27,50,27s-0.2,0-0.3,0.1c-8.5,10.2-17.5,23.1-17.4,28.6c0.1,4.2,2.9,7.8,6.6,8.5   c2.3,0.5,4.6,0,6.5-1.3C45.6,62.8,45.8,62.7,46,62.7z"/></g><text x="0" y="115" fill="#000000" font-size="5px" font-weight="bold" font-family="'Helvetica Neue', Helvetica, Arial-Unicode, Arial, Sans-serif">Created by Nurhuda Rahmadihan</text><text x="0" y="120" fill="#000000" font-size="5px" font-weight="bold" font-family="'Helvetica Neue', Helvetica, Arial-Unicode, Arial, Sans-serif">from the Noun Project</text></svg>