<svg xmlns="http://www.w3.org/2000/svg" viewBox="0 0 32 40" fill="none" x="0px" y="0px"><path fill-rule="evenodd" clip-rule="evenodd" d="M16.8546 5.46402H13.8822V6.46402H15.8546V8.94243C15.8546 9.13364 15.911 9.32438 15.9767 9.48523C16.0454 9.65328 16.1393 9.82479 16.2462 9.98704C16.4475 10.2923 16.7235 10.6074 17.027 10.8208C17.1167 10.9035 17.2126 10.9671 17.3113 11.0155C17.252 11.032 17.1911 11.0482 17.1289 11.0641C16.2283 11.2939 15.2305 11.4095 14.9699 11.42C14.9544 11.4114 14.9161 11.3884 14.8535 11.332C14.7425 11.2321 14.6127 11.0791 14.481 10.8903C14.2123 10.5049 14.0003 10.065 13.9379 9.81441C13.8712 9.54645 13.5999 9.38332 13.3319 9.45005C13.064 9.51678 12.9008 9.7881 12.9676 10.0561C13.07 10.4673 13.3525 11.0202 13.6607 11.4622C13.8175 11.6871 13.9967 11.9063 14.1845 12.0753C14.3493 12.2236 14.6149 12.4208 14.9362 12.4208C15.2372 12.4208 16.3767 12.288 17.3761 12.033C17.8727 11.9063 18.389 11.7365 18.759 11.5092C18.9415 11.397 19.1391 11.2408 19.2597 11.0226C19.398 10.7725 19.4109 10.4824 19.2746 10.2087L19.051 9.75978L18.6043 9.98396L18.6004 9.98585C18.5962 9.98785 18.5888 9.99136 18.5784 9.99604C18.5575 10.0054 18.5254 10.0193 18.4847 10.035C18.4019 10.067 18.291 10.1037 18.1723 10.1276C17.8992 10.1824 17.7573 10.1385 17.6978 10.0788L17.6628 10.0437L17.6217 10.0161C17.4458 9.8984 17.2423 9.68112 17.0811 9.43666C17.0026 9.31762 16.942 9.2037 16.9025 9.10701C16.8828 9.059 16.8701 9.01929 16.8626 8.98852C16.8551 8.95772 16.8546 8.94314 16.8546 8.94245V5.46402Z" transform="translate(2.12965 2)" fill="black"/><path fill-rule="evenodd" clip-rule="evenodd" d="M13.8822 6.46402C14.1504 6.46402 14.3712 6.68283 14.3712 6.95682C14.3712 7.23082 14.1504 7.44963 13.8822 7.44963H12.8745L12.8879 7.96272L12.898 8.36523C12.9041 8.61312 12.9122 8.95392 12.9204 9.32565C12.9366 10.0712 12.9527 10.9344 12.9527 11.4244C12.9527 11.475 12.9238 11.5903 12.6927 11.7634C12.5046 11.9044 12.2368 12.0403 11.9099 12.1664L9.95409 11.1619C9.99185 10.986 10.0192 10.8089 10.0306 10.6364C10.0504 10.3364 10.0252 10.0049 9.87943 9.71232C9.70421 9.36053 9.46356 9.11829 9.18362 8.97433C9.18233 8.97339 9.18031 8.97186 9.17759 8.96963C9.16833 8.96206 9.15508 8.94982 9.13924 8.93246C9.10674 8.89683 9.07453 8.85187 9.0503 8.807C9.04747 8.80177 9.04485 8.7967 9.04242 8.79183L9.93187 7.57803V6.46402H13.8822ZM9.65716 12.1336L10.5124 12.5729C10.1821 12.647 9.85817 12.7081 9.56628 12.7573C9.50309 12.768 9.44159 12.778 9.38206 12.7875C9.47263 12.5897 9.56809 12.3673 9.65716 12.1336ZM8.50793 13.41C8.55787 13.9075 8.55793 13.9075 8.55799 13.9075L8.56 13.9073L8.5649 13.9068L8.58281 13.9049L8.6495 13.8976C8.7071 13.8911 8.79027 13.8813 8.89429 13.868C9.10218 13.8413 9.39419 13.8005 9.7325 13.7434C10.4042 13.6302 11.2784 13.45 12.0413 13.1833C12.4984 13.0235 12.9479 12.8218 13.2924 12.5637C13.6309 12.3101 13.9527 11.9349 13.9527 11.4244C13.9527 10.9217 13.9364 10.0475 13.9201 9.30382C13.9131 8.98276 13.9061 8.68478 13.9004 8.44952C14.7161 8.43975 15.3712 7.77339 15.3712 6.95682C15.3712 6.1342 14.7064 5.46402 13.8822 5.46402H8.93187V7.25086L8.15797 8.30697C8.01384 8.50365 8.00741 8.72297 8.02889 8.87316C8.0508 9.02637 8.10859 9.16771 8.17041 9.28218C8.28522 9.49477 8.48418 9.7405 8.72465 9.86279C8.79589 9.89902 8.89314 9.97509 8.98431 10.1581C9.01906 10.2279 9.04684 10.358 9.0328 10.5705C9.01916 10.7769 8.96889 11.02 8.89127 11.2828C8.75656 11.7388 8.55344 12.2081 8.37958 12.57C8.29341 12.7494 8.21605 12.899 8.16053 13.0032C8.1328 13.0553 8.11061 13.0959 8.09559 13.123L8.07868 13.1534L8.07466 13.1605L8.07384 13.1619L7.59234 14.0045L8.55799 13.9075L8.50793 13.41Z" transform="translate(2.12965 2)" fill="black"/><path fill-rule="evenodd" clip-rule="evenodd" d="M9.56876 3.97122L8.98338 2.74203L12.9493 2.01816L16.5757 2.74625L16.1422 3.97122H9.56876ZM16.8491 4.97122H8.93738L7.51896 1.9928L12.9583 1L17.9031 1.9928L16.8491 4.97122Z" transform="translate(2.12965 2)" fill="black"/><path fill-rule="evenodd" clip-rule="evenodd" d="M1.53571 14C1.47516 14 1.41666 13.978 1.37109 13.9381L1.08537 13.6881C0.971542 13.5885 0.971542 13.4115 1.08537 13.3119L1.22676 13.1881C1.34059 13.0885 1.34059 12.9115 1.22676 12.8119L1.08537 12.6881C0.971542 12.5885 0.971542 12.4115 1.08537 12.3119L1.22676 12.1881C1.34059 12.0885 1.34059 11.9115 1.22676 11.8119L1.08537 11.6881C0.971542 11.5885 0.971542 11.4115 1.08537 11.3119L1.22676 11.1881C1.34059 11.0885 1.34059 10.9115 1.22676 10.8119L1.08537 10.6881C0.971542 10.5885 0.971542 10.4115 1.08537 10.3119L1.37109 10.0619C1.41666 10.022 1.47516 10 1.53571 10H3.87035C4.42264 10 4.87035 10.4477 4.87035 11V13C4.87035 13.5523 4.42264 14 3.87035 14H1.53571ZM1.53571 9H3.87035C4.97492 9 5.87035 9.89543 5.87035 11V13C5.87035 14.1046 4.97492 15 3.87035 15H1.53571C1.23294 15 0.940448 14.8901 0.712584 14.6907L0.426869 14.4407C0.00196788 14.0689 -0.105727 13.4812 0.103786 13C-0.0345954 12.6821 -0.0345954 12.3179 0.103786 12C-0.0345954 11.6821 -0.0345954 11.3179 0.103786 11C-0.105727 10.5188 0.00196773 9.93107 0.426869 9.55928L0.712584 9.30928C0.940448 9.1099 1.23294 9 1.53571 9Z" transform="translate(2.12965 2)" fill="black"/><path d="M4.87035 10H5.87035C6.42263 10 6.87035 10.4477 6.87035 11V13C6.87035 13.5523 6.42263 14 5.87035 14H4.87035V10Z" transform="translate(2.12965 2)" fill="black"/><path fill-rule="evenodd" clip-rule="evenodd" d="M2.37035 3.41421V7H3.37035V2.41421L2.37035 3.41421ZM1.37035 3V8H4.37035V0L1.37035 3Z" transform="translate(2.12965 2)" fill="black"/><path fill-rule="evenodd" clip-rule="evenodd" d="M9.88608 22.5405H12.8585V21.5405H10.8861V19.0621C10.8861 18.8709 10.8297 18.6801 10.7639 18.5193C10.6953 18.3512 10.6014 18.1797 10.4945 18.0174C10.2932 17.7121 10.0172 17.3971 9.71365 17.1837C9.62398 17.101 9.52808 17.0374 9.4294 16.989C9.4887 16.9725 9.54957 16.9563 9.61184 16.9404C10.5124 16.7106 11.5102 16.595 11.7708 16.5844C11.7863 16.593 11.8246 16.6161 11.8872 16.6725C11.9982 16.7724 12.128 16.9254 12.2597 17.1142C12.5284 17.4996 12.7404 17.9395 12.8028 18.1901C12.8695 18.458 13.1408 18.6212 13.4088 18.5544C13.6767 18.4877 13.8399 18.2164 13.7731 17.9484C13.6707 17.5372 13.3882 16.9842 13.08 16.5423C12.9232 16.3174 12.744 16.0982 12.5562 15.9292C12.3914 15.7809 12.1258 15.5836 11.8045 15.5836C11.5035 15.5836 10.364 15.7165 9.3646 15.9715C8.86796 16.0982 8.35166 16.268 7.9817 16.4953C7.79915 16.6075 7.60163 16.7637 7.48101 16.9819C7.34274 17.232 7.32981 17.5221 7.46611 17.7958L7.68971 18.2447L8.13635 18.0205L8.14025 18.0186C8.14445 18.0166 8.15192 18.0131 8.16231 18.0084C8.18318 17.9991 8.21533 17.9852 8.25601 17.9695C8.33884 17.9375 8.4497 17.9007 8.56838 17.8769C8.84147 17.8221 8.9834 17.866 9.04288 17.9257L9.07784 17.9608L9.11902 17.9884C9.2949 18.1061 9.49842 18.3234 9.65957 18.5678C9.73804 18.6869 9.79873 18.8008 9.83823 18.8975C9.85785 18.9455 9.87058 18.9852 9.87807 19.016C9.88558 19.0468 9.88606 19.0613 9.88608 19.062L9.88608 22.5405Z" transform="translate(2.12965 2)" fill="black"/><path fill-rule="evenodd" clip-rule="evenodd" d="M12.8585 21.5405C12.5903 21.5405 12.3695 21.3217 12.3695 21.0477C12.3695 20.7737 12.5903 20.5549 12.8585 20.5549H13.8662L13.8528 20.0418L13.8427 19.6393C13.8366 19.3914 13.8285 19.0506 13.8203 18.6788C13.8041 17.9333 13.7879 17.0701 13.7879 16.58C13.7879 16.5295 13.8169 16.4142 14.0479 16.2411C14.2361 16.1 14.5039 15.9642 14.8308 15.8381L16.7866 16.8426C16.7488 17.0185 16.7215 17.1956 16.7101 17.3681C16.6902 17.6681 16.7155 17.9996 16.8613 18.2922C17.0365 18.644 17.2771 18.8862 17.5571 19.0302C17.5584 19.0311 17.5604 19.0326 17.5631 19.0349C17.5724 19.0424 17.5856 19.0547 17.6015 19.072C17.634 19.1077 17.6662 19.1526 17.6904 19.1975C17.6932 19.2027 17.6958 19.2078 17.6983 19.2127L16.8088 20.4265V21.5405H12.8585ZM17.0835 15.8709L16.2283 15.4316C16.5586 15.3575 16.8825 15.2964 17.1744 15.2471C17.2376 15.2365 17.2991 15.2264 17.3586 15.217C17.2681 15.4148 17.1726 15.6371 17.0835 15.8709ZM18.2328 14.5944C18.1828 14.0969 18.1828 14.0969 18.1827 14.097L18.1807 14.0972L18.1758 14.0977L18.1579 14.0995L18.0912 14.1069C18.0336 14.1134 17.9504 14.1232 17.8464 14.1365C17.6385 14.1632 17.3465 14.204 17.0082 14.2611C16.3365 14.3743 15.4623 14.5545 14.6994 14.8212C14.2423 14.981 13.7928 15.1826 13.4483 15.4408C13.1098 15.6944 12.7879 16.0696 12.7879 16.58C12.7879 17.0828 12.8043 17.957 12.8206 18.7007C12.8276 19.0217 12.8346 19.3197 12.8403 19.555C12.0246 19.5647 11.3695 20.2311 11.3695 21.0477C11.3695 21.8703 12.0343 22.5405 12.8585 22.5405H17.8088V20.7536L18.5827 19.6975C18.7269 19.5008 18.7333 19.2815 18.7118 19.1313C18.6899 18.9781 18.6321 18.8368 18.5703 18.7223C18.4555 18.5097 18.2565 18.264 18.016 18.1417C17.9448 18.1055 17.8476 18.0294 17.7564 17.8463C17.7216 17.7766 17.6939 17.6465 17.7079 17.434C17.7215 17.2276 17.7718 16.9845 17.8494 16.7217C17.9841 16.2657 18.1872 15.7963 18.3611 15.4345C18.4473 15.2551 18.5246 15.1055 18.5802 15.0012C18.6079 14.9492 18.6301 14.9086 18.6451 14.8814L18.662 14.8511L18.666 14.844L18.6669 14.8426L19.1484 14L18.1827 14.097L18.2328 14.5944Z" transform="translate(2.12965 2)" fill="black"/><path fill-rule="evenodd" clip-rule="evenodd" d="M17.1719 24.0333L17.7573 25.2625L13.7914 25.9863L10.165 25.2582L10.5985 24.0333H17.1719ZM9.8916 23.0333H17.8033L19.2217 26.0117L13.7824 27.0045L8.83762 26.0117L9.8916 23.0333Z" transform="translate(2.12965 2)" fill="black"/><path fill-rule="evenodd" clip-rule="evenodd" d="M25.205 14.0045C25.2655 14.0045 25.324 14.0265 25.3696 14.0663L25.6553 14.3163C25.7692 14.4159 25.7692 14.593 25.6553 14.6926L25.5139 14.8163C25.4001 14.9159 25.4001 15.093 25.5139 15.1926L25.6553 15.3163C25.7692 15.4159 25.7692 15.593 25.6553 15.6926L25.5139 15.8163C25.4001 15.9159 25.4001 16.093 25.5139 16.1926L25.6553 16.3163C25.7692 16.4159 25.7692 16.593 25.6553 16.6926L25.5139 16.8163C25.4001 16.9159 25.4001 17.093 25.5139 17.1926L25.6553 17.3163C25.7692 17.4159 25.7692 17.593 25.6553 17.6926L25.3696 17.9426C25.324 17.9825 25.2655 18.0045 25.205 18.0045H22.8703C22.3181 18.0045 21.8703 17.5568 21.8703 17.0045V15.0045C21.8703 14.4522 22.3181 14.0045 22.8703 14.0045H25.205ZM25.205 19.0045H22.8703C21.7658 19.0045 20.8703 18.1091 20.8703 17.0045V15.0045C20.8703 13.8999 21.7658 13.0045 22.8703 13.0045H25.205C25.5078 13.0045 25.8002 13.1144 26.0281 13.3138L26.3138 13.5638C26.7387 13.9356 26.8464 14.5233 26.6369 15.0045C26.7753 15.3223 26.7753 15.6866 26.6369 16.0045C26.7753 16.3223 26.7753 16.6866 26.6369 17.0045C26.8464 17.4857 26.7387 18.0734 26.3138 18.4452L26.0281 18.6952C25.8002 18.8946 25.5078 19.0045 25.205 19.0045Z" transform="translate(2.12965 2)" fill="black"/><path d="M21.8703 18.0045H20.8703C20.3181 18.0045 19.8703 17.5568 19.8703 17.0045V15.0045C19.8703 14.4522 20.3181 14.0045 20.8703 14.0045H21.8703V18.0045Z" transform="translate(2.12965 2)" fill="black"/><path fill-rule="evenodd" clip-rule="evenodd" d="M24.3703 24.5903V21.0045H23.3703V25.5903L24.3703 24.5903ZM25.3703 25.0045V20.0045H22.3703V28.0045L25.3703 25.0045Z" transform="translate(2.12965 2)" fill="black"/><text x="0" y="47" fill="#000000" font-size="5px" font-weight="bold" font-family="'Helvetica Neue', Helvetica, Arial-Unicode, Arial, Sans-serif">Created by Billy Sweetman</text><text x="0" y="52" fill="#000000" font-size="5px" font-weight="bold" font-family="'Helvetica Neue', Helvetica, Arial-Unicode, Arial, Sans-serif">from the Noun Project</text></svg>